<svg xmlns="http://www.w3.org/2000/svg" viewBox="0 0 32 32">
  <defs>
    <linearGradient id="grad" x1="0%" y1="0%" x2="100%" y2="100%">
      <stop offset="0%" style="stop-color:#c9a227;stop-opacity:1" />
      <stop offset="100%" style="stop-color:#a1821f;stop-opacity:1" />
    </linearGradient>
  </defs>
  <rect width="32" height="32" rx="6" fill="url(#grad)"/>
  <path d="M16 6c-1.5 0-2.7.4-3.7 1.2-1 .8-1.5 1.9-1.5 3.3 0 1.2.4 2.2 1.2 3 .8.8 1.8 1.3 3 1.5v2.8l-4 2.4v1.8l4.8-2.8c.3 0 .5 0 .7.1h.6c.2 0 .5 0 .7-.1l4.8 2.8v-1.8l-4-2.4v-2.8c1.2-.2 2.2-.7 3-1.5.8-.8 1.2-1.8 1.2-3 0-1.4-.5-2.5-1.5-3.3-1-.8-2.2-1.2-3.7-1.2h-1.6zm0 1.6h1.4c.8 0 1.4.2 1.8.5.4.4.6.8.6 1.4s-.2 1-.6 1.4c-.4.3-1 .5-1.8.5h-1.4c-.8 0-1.4-.2-1.8-.5-.4-.4-.6-.8-.6-1.4s.2-1 .6-1.4c.4-.3 1-.5 1.8-.5h.4zm-1.6 6.4h3.2v5.6c0 .2 0 .3.1.5s.1.3.2.4l3.2 1.9v-8.4h-7v8.4l3.2-1.9c.1-.1.2-.2.2-.4s.1-.3.1-.5v-5.6z" fill="white"/>
</svg>
